<?xml version="1.0" standalone="no"?>
<!DOCTYPE svg PUBLIC "-//W3C//DTD SVG 20010904//EN"
 "http://www.w3.org/TR/2001/REC-SVG-20010904/DTD/svg10.dtd">
<svg version="1.0" xmlns="http://www.w3.org/2000/svg"
 width="250.000000pt" height="250.000000pt" viewBox="0 0 250.000000 250.000000"
 preserveAspectRatio="xMidYMid meet">
<metadata>
Created by potrace 1.14, written by Peter Selinger 2001-2017
</metadata>
<g transform="translate(0.000000,250.000000) scale(0.100000,-0.100000)"
fill="#000000" stroke="none">
<path d="M2165 2493 c11 -3 23 -10 28 -17 4 -7 10 -8 15 -1 8 11 57 14 67 4 8
-9 45 1 45 12 0 5 -39 8 -87 8 -49 -1 -79 -4 -68 -6z"/>
<path d="M2330 2485 c0 -9 10 -15 28 -16 15 -1 37 -3 50 -4 12 -1 25 2 28 6 3
5 14 9 24 9 10 0 22 5 25 10 4 6 -23 10 -74 10 -65 0 -81 -3 -81 -15z"/>
<path d="M2280 2329 c-25 -4 -74 -15 -110 -24 -36 -8 -81 -18 -100 -22 -31 -6
-151 -61 -140 -64 21 -6 108 -3 104 3 -3 4 2 8 11 8 9 0 23 7 32 15 8 8 19 12
25 9 7 -4 -2 -18 -22 -34 -21 -17 -29 -30 -22 -34 6 -4 9 -13 6 -20 -3 -8 -1
-17 5 -20 6 -4 13 4 17 17 3 14 18 37 33 51 24 23 30 25 54 13 22 -10 26 -17
23 -40 -2 -15 -14 -35 -26 -45 l-21 -17 20 -27 c12 -14 22 -39 23 -55 3 -31
29 -66 35 -46 3 8 12 4 25 -9 15 -15 22 -17 28 -8 12 19 26 5 51 -48 12 -26
25 -55 30 -64 5 -10 9 -28 9 -40 0 -25 22 -93 33 -104 4 -4 7 -31 7 -61 0 -38
-4 -55 -15 -59 -8 -4 -15 -17 -15 -30 0 -13 -4 -24 -10 -24 -5 0 -10 11 -10
25 0 14 -4 25 -9 25 -11 0 -3 -37 17 -70 13 -22 13 -23 -1 -7 -14 17 -16 17
-41 -8 -14 -14 -26 -30 -26 -35 0 -5 -8 -16 -17 -25 -10 -11 -18 -37 -20 -71
-3 -53 -3 -54 17 -36 17 14 18 18 5 20 -13 3 -13 7 2 34 20 33 52 55 62 42 3
-5 15 -14 26 -20 41 -23 43 -123 6 -313 -23 -117 -43 -158 -36 -70 11 131 12
152 8 117 -2 -21 -8 -38 -14 -38 -12 0 -12 87 1 92 6 2 12 27 13 55 3 60 17
84 17 30 0 -38 19 -53 21 -17 4 62 2 73 -23 100 -13 14 -22 26 -20 28 2 1 2 8
-1 15 -3 9 -8 9 -20 -2 -21 -17 -22 -35 -2 -55 15 -15 20 -71 9 -100 -3 -9
-14 -16 -24 -16 -22 0 -25 -5 -33 -45 l-7 -30 17 33 c17 32 43 44 43 18 0 -7
-11 -30 -25 -50 -30 -45 -32 -55 -5 -31 19 17 20 17 20 -1 0 -10 -5 -26 -10
-34 -7 -11 -5 -17 6 -20 13 -5 11 -9 -7 -25 -19 -17 -22 -18 -16 -3 7 20 -9
35 -16 16 -3 -7 -4 1 -4 17 2 26 -2 30 -28 33 -19 3 -34 -2 -43 -15 -13 -16
-14 -16 -9 0 4 9 2 17 -4 17 -6 0 -7 4 -4 10 3 6 -1 7 -9 4 -9 -3 -14 -9 -12
-13 3 -4 -4 -12 -15 -19 -16 -10 -19 -9 -19 7 0 10 -6 21 -13 24 -11 4 -11 -4
2 -38 16 -45 10 -68 -11 -47 -18 18 -25 15 -24 -9 1 -17 -5 -22 -26 -23 -22
-1 -25 1 -17 16 6 11 6 18 0 18 -5 0 -11 -4 -13 -9 -1 -5 -16 -12 -33 -16 -24
-5 -27 -4 -13 5 21 13 14 36 -11 36 -11 0 -17 -5 -14 -13 4 -9 0 -11 -13 -6
-17 6 -17 5 -5 -10 17 -22 -2 -23 -23 -1 -17 17 -22 49 -6 39 6 -4 10 5 9 22
-1 17 -3 21 -6 10 -2 -9 -8 -15 -13 -12 -11 7 -22 -41 -14 -69 3 -13 1 -27 -5
-31 -6 -3 -8 -12 -5 -18 5 -8 3 -8 -7 0 -15 15 -53 18 -44 3 3 -5 12 -7 20 -3
19 7 19 -11 0 -27 -9 -7 -15 -8 -15 -2 0 5 -16 8 -37 6 -21 -2 -32 -1 -25 2 6
3 12 10 12 15 0 6 -8 6 -19 -1 -25 -13 -34 -13 -25 1 3 6 -5 3 -19 -6 -15 -9
-32 -13 -38 -9 -8 5 -9 3 -4 -6 6 -10 1 -12 -19 -8 -14 3 -26 2 -26 -3 0 -17
-41 -20 -62 -5 -15 11 -18 16 -8 16 13 0 13 1 0 9 -8 6 -17 8 -21 5 -4 -2 -10
0 -14 6 -3 5 -16 10 -27 10 -21 0 -88 36 -100 54 -4 6 -11 11 -15 11 -4 1 -26
5 -48 10 -22 4 -48 7 -59 6 -12 -2 -16 1 -11 10 5 8 4 10 -4 5 -16 -10 -131
109 -131 135 0 10 -4 19 -10 19 -13 0 -13 -1 4 -41 8 -19 28 -47 45 -63 39
-37 40 -51 2 -31 -46 23 -77 58 -73 79 3 14 0 17 -11 13 -9 -3 -27 3 -40 14
-14 10 -28 19 -31 19 -4 0 -35 18 -70 40 -80 51 -129 68 -191 66 l-50 -1 -18
-55 c-9 -30 -22 -85 -28 -121 -11 -61 -10 -69 15 -122 14 -31 30 -57 36 -57 5
0 10 -5 10 -11 0 -7 -9 -9 -21 -6 -26 7 -48 -11 -42 -34 4 -13 -5 -19 -39 -25
-23 -4 -47 -7 -52 -5 -51 13 -66 13 -66 -3 0 -16 -23 -18 -46 -3 -7 4 -17 0
-24 -8 -11 -13 -8 -15 14 -15 16 0 25 -4 21 -10 -9 -14 29 -12 44 3 10 9 15 9
18 1 3 -9 19 -8 61 3 36 10 77 13 112 9 31 -3 66 -3 78 1 21 5 21 6 5 19 -16
13 -15 14 12 8 17 -4 36 -12 43 -19 11 -10 8 -13 -17 -18 -36 -7 -42 -29 -8
-26 53 5 57 2 40 -32 -8 -16 -13 -40 -9 -51 3 -13 -1 -26 -11 -33 -12 -9 -7
-11 26 -9 23 1 44 -2 47 -7 3 -5 -1 -6 -9 -3 -23 9 -31 -16 -11 -31 18 -14 18
-14 -3 -15 -14 0 -23 6 -23 15 0 8 -5 15 -11 15 -5 0 -7 -4 -4 -10 8 -14 3
-13 -33 6 -18 8 -32 20 -32 26 0 6 -3 8 -6 5 -4 -4 -2 -12 3 -19 9 -11 14 -48
7 -48 -1 0 -14 4 -28 10 -21 8 -24 7 -19 -8 3 -9 3 -14 -2 -10 -4 4 -14 3 -22
-3 -9 -9 -13 -8 -13 0 0 6 4 11 9 11 6 0 9 9 8 20 -1 22 -22 27 -31 8 -3 -10
-9 -8 -19 5 -18 22 -27 22 -27 -2 0 -12 9 -21 25 -25 17 -4 22 -11 18 -22 -5
-13 -8 -13 -25 3 -19 17 -119 53 -150 53 -24 0 -110 47 -130 71 -16 19 -17 19
-11 -16 4 -23 2 -35 -6 -35 -6 0 -11 10 -11 23 0 12 -5 29 -10 37 -13 20 -14
-39 -1 -73 13 -34 21 -88 12 -82 -16 10 -103 -33 -147 -73 -46 -41 -46 -42
-42 -94 6 -72 31 -120 100 -191 49 -51 55 -62 42 -71 -16 -12 -10 -46 7 -46
25 0 91 -72 85 -93 -3 -12 3 -19 21 -23 19 -5 22 -9 11 -16 -8 -5 217 -7 553
-6 460 2 569 6 582 17 9 7 15 17 12 21 -7 11 23 40 41 40 8 0 44 16 81 36 130
70 158 83 180 84 12 0 37 13 56 30 21 18 50 32 78 36 28 5 58 19 82 40 42 35
96 47 134 30 35 -17 28 -43 -9 -37 -18 3 -6 -17 13 -22 28 -7 79 11 73 27 -3
8 5 12 27 10 24 -2 33 3 36 17 4 14 11 18 24 14 17 -6 29 0 62 31 6 6 21 9 32
6 20 -4 20 -4 -1 11 -20 15 -33 16 -64 4 -8 -3 -23 -7 -33 -9 -10 -2 -17 -7
-15 -13 3 -11 -39 -22 -91 -24 -37 -1 -35 11 2 16 20 2 46 14 140 59 16 8 40
14 53 14 l25 0 -2 621 c-1 355 -6 616 -11 611 -4 -4 -10 -40 -13 -78 -6 -81
-8 -95 -18 -111 -5 -8 -4 -13 2 -13 6 0 11 -8 11 -17 0 -14 -3 -13 -17 6 -13
20 -15 33 -7 71 15 72 5 222 -19 265 -14 27 -17 65 -5 65 6 0 8 -9 5 -20 -3
-13 0 -20 9 -20 8 0 13 -3 12 -7 -4 -22 16 -133 24 -133 7 0 8 20 4 53 -5 37
-2 63 8 88 11 27 15 86 16 261 l1 225 -59 17 c-62 17 -91 18 -162 5z m-36 -54
c-4 -8 -14 -15 -24 -15 -11 0 -22 -4 -25 -10 -9 -14 -38 -13 -33 2 2 6 20 17
39 24 45 17 49 17 43 -1z m19 -162 c-4 -9 1 -11 13 -7 17 5 16 4 -1 -7 -11 -7
-25 -19 -31 -27 -8 -11 -13 -12 -18 -3 -4 6 -2 20 6 29 12 15 11 16 -4 4 -13
-11 -18 -11 -24 0 -16 26 -13 45 9 56 18 8 25 6 38 -11 10 -11 15 -27 12 -34z
m91 -45 c-5 -14 -70 -58 -83 -58 -5 0 -14 7 -21 15 -10 12 -9 15 7 15 11 0 23
3 27 7 4 4 21 13 39 19 18 6 33 12 34 13 1 0 0 -5 -3 -11z m0 -573 c-4 -8 -11
-15 -16 -15 -6 0 -5 6 2 15 7 8 14 15 16 15 2 0 1 -7 -2 -15z m120 -111 c3 -8
2 -12 -4 -9 -6 3 -10 10 -10 16 0 14 7 11 14 -7z m-1716 -72 c11 -11 21 -27
24 -38 3 -10 9 -27 13 -38 8 -17 7 -17 -24 -2 -32 17 -56 59 -47 83 7 17 12
17 34 -5z m70 -30 c2 -7 -5 -12 -17 -12 -14 0 -19 5 -14 15 6 17 25 15 31 -3z
m-122 -78 c-14 -21 -26 -34 -26 -28 0 5 7 19 15 30 8 10 15 33 15 49 1 28 2
29 12 9 8 -18 5 -29 -16 -60z m164 66 c0 -5 -2 -10 -4 -10 -3 0 -8 5 -11 10
-3 6 -1 10 4 10 6 0 11 -4 11 -10z m2 -90 c12 -17 27 -29 34 -26 6 2 17 -4 24
-14 8 -10 20 -16 29 -12 9 3 13 2 9 -3 -4 -4 -3 -14 3 -22 21 -24 -10 -15 -37
12 -14 14 -27 25 -30 25 -9 0 -74 55 -74 63 0 16 21 5 42 -23z m93 1 c7 -12
-12 -24 -25 -16 -11 7 -4 25 10 25 5 0 11 -4 15 -9z m76 -21 c20 -7 41 -21 47
-31 10 -15 9 -17 -6 -12 -37 15 -61 30 -55 36 12 13 -13 7 -26 -5 -11 -11 -12
-10 -6 1 4 8 2 17 -6 23 -16 11 -9 10 52 -12z m-25 -42 c4 -7 3 -8 -4 -4 -7 4
-12 2 -12 -4 0 -6 -5 -8 -11 -4 -8 4 -7 9 2 15 18 11 17 11 25 -3z m1234 -7
c0 -5 -6 -14 -14 -20 -12 -10 -13 -8 -9 8 5 21 23 30 23 12z m-77 -16 c-3 -9
-8 -14 -10 -11 -3 3 -2 9 2 15 9 16 15 13 8 -4z m-1039 -4 c4 -5 24 -12 46
-16 46 -8 63 -25 25 -25 -24 0 -105 35 -105 45 0 9 29 5 34 -4z m1076 -5 c0
-11 -19 -15 -25 -6 -3 5 1 10 9 10 9 0 16 -2 16 -4z m-817 -113 c-7 -2 -21 -2
-30 0 -10 3 -4 5 12 5 17 0 24 -2 18 -5z m92 -33 c4 -6 15 -6 31 0 15 6 23 6
19 1 -5 -9 53 -31 82 -31 6 0 15 -4 18 -10 4 -6 -17 -8 -57 -4 -86 7 -110 13
-103 24 4 6 -7 10 -24 10 -17 0 -31 5 -31 10 0 13 57 13 65 0z m-25 -34 c0 -2
-7 -17 -15 -32 l-15 -29 2 33 c1 18 8 32 15 32 7 0 13 -2 13 -4z m716 -33 c-8
-15 -15 -22 -16 -15 0 14 22 53 28 47 2 -2 -3 -16 -12 -32z m168 -73 c-10 -16
-20 -27 -22 -25 -5 5 26 55 34 55 3 0 -3 -13 -12 -30z m-1964 -104 c0 -3 -4
-8 -10 -11 -5 -3 -10 -1 -10 4 0 6 5 11 10 11 6 0 10 -2 10 -4z m-58 -130 c9
-20 7 -31 -10 -59 l-20 -35 27 -12 26 -13 -35 -13 c-28 -10 -31 -13 -12 -13
13 -1 21 -5 18 -10 -9 -14 27 -23 36 -9 6 9 10 7 14 -10 4 -14 12 -21 21 -18
10 4 11 1 5 -12 -12 -21 9 -84 29 -90 12 -3 11 -2 -1 7 -8 5 -11 13 -7 17 11
12 32 -13 35 -42 1 -21 -1 -24 -11 -16 -7 6 -23 9 -34 6 -15 -4 -28 2 -44 20
-12 14 -27 26 -32 26 -6 0 -2 -9 8 -20 10 -11 16 -23 12 -26 -17 -17 -120 73
-148 131 -27 55 -18 131 17 147 13 6 24 15 24 20 0 4 7 8 15 8 8 0 15 6 16 13
0 10 2 10 6 0 8 -21 25 -14 18 7 -9 29 13 25 27 -4z m56 -141 c-3 -3 -9 2 -12
12 -6 14 -5 15 5 6 7 -7 10 -15 7 -18z"/>
<path d="M2210 2140 c0 -6 7 -10 15 -10 8 0 15 2 15 4 0 2 -7 6 -15 10 -8 3
-15 1 -15 -4z"/>
<path d="M227 513 c-10 -20 -8 -113 3 -113 6 0 10 6 8 12 -3 7 2 19 9 26 10
11 11 17 2 28 -6 8 -9 23 -6 34 5 19 -7 29 -16 13z"/>
<path d="M228 363 c7 -3 16 -2 19 1 4 3 -2 6 -13 5 -11 0 -14 -3 -6 -6z"/>
<path d="M1750 2216 c0 -2 9 -6 20 -9 11 -3 18 -1 14 4 -5 9 -34 13 -34 5z"/>
<path d="M1807 2209 c8 -8 16 -8 30 0 16 9 14 10 -11 11 -22 0 -27 -3 -19 -11z"/>
<path d="M1996 2152 c-2 -4 4 -9 15 -9 10 -1 19 2 19 8 0 11 -27 12 -34 1z"/>
<path d="M1570 2130 c-6 -11 -8 -20 -6 -20 3 0 10 9 16 20 6 11 8 20 6 20 -3
0 -10 -9 -16 -20z"/>
<path d="M1970 2120 c0 -5 5 -10 10 -10 6 0 10 5 10 10 0 6 -4 10 -10 10 -5 0
-10 -4 -10 -10z"/>
<path d="M2086 2108 c4 -12 -1 -18 -23 -21 -16 -2 -6 -4 22 -5 28 0 43 2 35 5
-8 4 -21 13 -28 22 -11 14 -11 14 -6 -1z"/>
<path d="M1449 2069 c-6 -3 -3 -8 8 -11 20 -5 43 0 43 11 0 9 -37 9 -51 0z"/>
<path d="M1895 2060 c-3 -5 -2 -10 4 -10 5 0 13 5 16 10 3 6 2 10 -4 10 -5 0
-13 -4 -16 -10z"/>
<path d="M1633 2051 c44 -9 60 -21 28 -21 -30 0 -76 -31 -60 -40 13 -8 4 -30
-12 -30 -6 0 -7 5 -4 10 8 13 -6 13 -25 -1 -12 -8 -12 -12 -2 -16 10 -4 10 -8
1 -19 -9 -11 -7 -14 9 -14 16 0 20 -4 15 -17 -4 -11 -3 -14 5 -9 7 4 12 3 12
-2 0 -6 10 -8 23 -5 12 3 19 2 15 -2 -7 -7 29 -42 45 -43 5 0 23 -12 42 -26
18 -14 38 -26 42 -26 5 0 19 -14 32 -31 15 -21 29 -29 44 -27 12 2 28 -4 35
-12 12 -13 13 -12 9 7 -3 15 1 24 12 28 24 7 51 68 45 99 -4 26 -45 108 -65
132 -15 19 -1 18 17 -1 19 -18 47 -20 41 -2 -2 6 -10 11 -16 10 -6 -2 -11 2
-11 7 0 6 -7 10 -16 10 -10 0 -14 6 -11 14 4 9 -3 13 -21 13 -15 0 -21 -2 -14
-4 6 -3 12 -11 12 -18 0 -10 -7 -11 -27 -5 -85 27 -153 43 -193 46 -45 3 -45
3 -7 -5z m11 -47 c9 -3 16 -13 16 -22 0 -8 -3 -12 -7 -9 -3 4 -12 2 -20 -5
-11 -8 -12 -7 -7 6 3 9 1 16 -6 16 -6 0 -8 5 -5 10 7 12 8 12 29 4z"/>
<path d="M2105 2050 c-3 -5 3 -10 15 -10 12 0 18 5 15 10 -3 6 -10 10 -15 10
-5 0 -12 -4 -15 -10z"/>
<path d="M1354 2037 c-37 -21 -144 -151 -154 -187 -15 -52 -11 -82 5 -39 29
80 59 123 138 202 21 20 37 37 35 37 -2 -1 -12 -6 -24 -13z"/>
<path d="M2050 1950 c0 -5 5 -10 11 -10 5 0 7 5 4 10 -3 6 -8 10 -11 10 -2 0
-4 -4 -4 -10z"/>
<path d="M1310 1930 c-14 -11 -20 -20 -13 -20 6 0 18 6 26 14 7 8 25 16 38 19
l24 4 -25 1 c-14 1 -36 -7 -50 -18z"/>
<path d="M1977 1924 c-3 -3 4 -22 16 -41 11 -20 23 -31 25 -24 2 7 -3 20 -12
30 -9 10 -13 20 -10 23 3 3 1 9 -4 12 -5 3 -12 3 -15 0z"/>
<path d="M1350 1863 c-14 -2 -36 -6 -50 -10 l-25 -6 27 -7 c15 -5 60 -6 99 -4
52 3 75 1 81 -8 6 -11 8 -10 8 0 0 18 53 11 62 -8 5 -12 7 -12 7 3 1 11 9 17
24 18 l22 0 -23 10 c-13 5 -28 7 -33 4 -5 -3 -17 -1 -27 4 -13 7 -22 7 -30 -1
-9 -9 -12 -9 -12 0 0 12 -71 15 -130 5z"/>
<path d="M1428 1813 c6 -2 18 -2 25 0 6 3 1 5 -13 5 -14 0 -19 -2 -12 -5z"/>
<path d="M1478 1793 c7 -3 16 -2 19 1 4 3 -2 6 -13 5 -11 0 -14 -3 -6 -6z"/>
<path d="M2335 1780 c3 -5 8 -10 11 -10 2 0 4 5 4 10 0 6 -5 10 -11 10 -5 0
-7 -4 -4 -10z"/>
<path d="M2492 1750 c0 -19 2 -27 5 -17 2 9 2 25 0 35 -3 9 -5 1 -5 -18z"/>
<path d="M1568 1743 c7 -3 16 -2 19 1 4 3 -2 6 -13 5 -11 0 -14 -3 -6 -6z"/>
<path d="M1190 1727 c-22 -9 -23 -11 -6 -14 15 -4 17 -11 12 -36 -7 -32 -22
-48 -40 -41 -16 5 -49 -23 -41 -35 3 -6 -1 -11 -10 -11 -9 0 -13 -5 -9 -11 4
-7 -2 -7 -17 1 -13 7 -21 9 -16 5 4 -5 0 -16 -9 -26 -15 -16 -14 -17 4 -12 11
2 23 0 26 -6 4 -6 1 -11 -7 -11 -7 0 -19 -11 -25 -25 -9 -19 -19 -25 -41 -25
-24 0 -29 4 -25 18 5 16 5 16 -6 0 -6 -10 -21 -18 -32 -18 -46 0 -9 -8 67 -15
170 -15 229 -22 198 -24 -40 -1 -44 -21 -5 -21 15 0 34 -4 41 -9 10 -6 0 -8
-30 -5 -33 4 -40 3 -29 -5 8 -6 23 -11 33 -11 9 0 17 -4 17 -10 0 -11 41 -18
138 -23 39 -2 72 0 72 5 0 4 -6 8 -13 8 -7 0 -22 6 -33 14 -27 21 -1 15 69
-14 31 -13 57 -27 57 -32 0 -4 14 -8 30 -8 17 0 30 5 30 13 0 7 3 8 8 2 12
-16 40 -14 41 4 7 108 17 190 25 198 8 9 -13 43 -27 43 -7 0 -25 12 -40 25
-28 25 -29 45 -1 45 8 0 14 5 14 10 0 6 -7 10 -15 10 -8 0 -29 9 -47 19 -17
11 -35 18 -40 15 -4 -3 -8 0 -8 6 0 7 -6 6 -15 -3 -10 -11 -33 -14 -80 -12
-36 1 -68 5 -72 9 -10 10 -95 7 -88 -3 3 -5 1 -12 -5 -16 -5 -3 -10 3 -10 14
0 26 -10 31 -40 18z m-35 -137 c3 -5 1 -10 -4 -10 -6 0 -11 5 -11 10 0 6 2 10
4 10 3 0 8 -4 11 -10z m-25 -40 c0 -5 -5 -10 -11 -10 -5 0 -7 5 -4 10 3 6 8
10 11 10 2 0 4 -4 4 -10z"/>
<path d="M2271 1724 c0 -11 3 -14 6 -6 3 7 2 16 -1 19 -3 4 -6 -2 -5 -13z"/>
<path d="M2301 1725 c1 -24 37 -126 38 -105 0 8 -8 40 -19 70 -11 30 -19 46
-19 35z"/>
<path d="M2358 1680 c6 -77 9 -83 17 -38 4 21 1 47 -8 69 -14 34 -15 33 -9
-31z"/>
<path d="M1110 1726 c0 -2 7 -7 16 -10 8 -3 12 -2 9 4 -6 10 -25 14 -25 6z"/>
<path d="M911 1682 c-6 -12 -11 -29 -11 -39 1 -11 7 -4 16 16 16 37 12 55 -5
23z"/>
<path d="M1595 1640 c3 -5 8 -10 11 -10 2 0 4 5 4 10 0 6 -5 10 -11 10 -5 0
-7 -4 -4 -10z"/>
<path d="M892 1595 c0 -16 2 -22 5 -12 2 9 2 23 0 30 -3 6 -5 -1 -5 -18z"/>
<path d="M2321 1574 c0 -11 3 -14 6 -6 3 7 2 16 -1 19 -3 4 -6 -2 -5 -13z"/>
<path d="M2287 1563 c-4 -3 -7 -11 -7 -17 0 -6 5 -5 12 2 6 6 9 14 7 17 -3 3
-9 2 -12 -2z"/>
<path d="M2206 1535 c4 -8 8 -15 10 -15 2 0 4 7 4 15 0 8 -4 15 -10 15 -5 0
-7 -7 -4 -15z"/>
<path d="M870 1432 c0 -12 62 -73 68 -67 3 2 -7 16 -21 29 -15 14 -27 30 -27
36 0 5 -4 10 -10 10 -5 0 -10 -4 -10 -8z"/>
<path d="M1138 1423 c7 -3 16 -2 19 1 4 3 -2 6 -13 5 -11 0 -14 -3 -6 -6z"/>
<path d="M880 1345 c0 -8 9 -15 20 -15 11 0 20 -4 20 -8 0 -5 16 -16 35 -25
19 -9 35 -15 35 -13 0 6 -93 76 -102 76 -4 0 -8 -7 -8 -15z"/>
<path d="M2231 1324 c0 -11 3 -14 6 -6 3 7 2 16 -1 19 -3 4 -6 -2 -5 -13z"/>
<path d="M1010 1303 c14 -10 35 -28 48 -40 12 -13 29 -20 38 -16 12 4 10 8 -8
18 -13 6 -41 22 -63 34 -24 13 -30 15 -15 4z"/>
<path d="M2284 1302 c3 -5 -6 -16 -20 -26 -35 -27 -30 -41 6 -16 29 21 41 50
19 50 -5 0 -8 -4 -5 -8z"/>
<path d="M2365 1230 c3 -5 8 -10 11 -10 2 0 4 5 4 10 0 6 -5 10 -11 10 -5 0
-7 -4 -4 -10z"/>
<path d="M2205 1200 c-3 -5 -1 -10 4 -10 6 0 11 5 11 10 0 6 -2 10 -4 10 -3 0
-8 -4 -11 -10z"/>
<path d="M1770 1121 c0 -6 4 -13 10 -16 6 -3 7 1 4 9 -7 18 -14 21 -14 7z"/>
<path d="M1815 1100 c3 -5 11 -10 16 -10 6 0 7 5 4 10 -3 6 -11 10 -16 10 -6
0 -7 -4 -4 -10z"/>
<path d="M1760 1020 c0 -13 18 -22 24 -11 3 5 -1 11 -9 15 -8 3 -15 1 -15 -4z"/>
<path d="M340 860 c-20 -20 -29 -77 -10 -65 6 3 10 15 10 25 0 11 9 24 20 30
21 11 27 30 10 30 -5 0 -19 -9 -30 -20z"/>
<path d="M410 816 c0 -9 5 -16 10 -16 6 0 10 4 10 9 0 6 -4 13 -10 16 -5 3
-10 -1 -10 -9z"/>
<path d="M470 801 c0 -6 5 -13 10 -16 6 -3 10 1 10 9 0 9 -4 16 -10 16 -5 0
-10 -4 -10 -9z"/>
<path d="M795 800 c-3 -5 -1 -10 4 -10 6 0 11 5 11 10 0 6 -2 10 -4 10 -3 0
-8 -4 -11 -10z"/>
<path d="M461 758 c-1 -10 1 -18 3 -18 2 0 11 -3 20 -6 9 -3 16 -1 16 5 0 6
-6 11 -14 11 -8 0 -17 6 -19 13 -3 7 -6 5 -6 -5z"/>
<path d="M590 720 c0 -5 7 -10 16 -10 8 0 12 5 9 10 -3 6 -10 10 -16 10 -5 0
-9 -4 -9 -10z"/>
<path d="M750 680 c0 -5 5 -10 10 -10 6 0 10 5 10 10 0 6 -4 10 -10 10 -5 0
-10 -4 -10 -10z"/>
<path d="M2144 286 c-3 -8 -4 -22 -2 -30 2 -12 7 -11 27 5 21 17 22 22 10 30
-20 12 -29 11 -35 -5z"/>
</g>
</svg>
